{"title":"Tower Block 2012  BRRip XViD juggs","uid":8169448,"size":744741063,"categoryP":"video","categoryS":"movies","magnet":"?xt=urn:btih:05bdaa0a20377b0dd9fab8b7710475899f283dff&amp;dn=Tower+Block+2012++BRRip+XViD+juggs&amp;tr=udp%3A%2F%2Ftracker.openbittorrent.com%3A80&amp;tr=udp%3A%2F%2Fopen.demonii.com%3A1337&amp;tr=udp%3A%2F%2Ftracker.coppersurfer.tk%3A6969&amp;tr=udp%3A%2F%2Fexodus.desync.com%3A6969","seeders":6,"leechers":1,"uploader":"juggs99","files":3,"time":1361395068,"description":" &lt;a href=&quot;http://www.shotpix.com/images/04313664244590673961.jpg&quot; rel=&quot;nofollow&quot; target=&quot;_NEW&quot;&gt;http://www.shotpix.com/images/04313664244590673961.jpg&lt;/a&gt;\n\n\nFormat : AVI\nFormat/Info : Audio Video Interleave\nFile size : 702 MiB\nDuration : 1h 30mn\nOverall bit rate : 1 090 Kbps\nWriting library : VirtualDub build 32842/release\n\nVideo\nID : 0\nFormat : MPEG-4 Visual\nFormat profile : Advanced Simple@L5\nFormat settings, BVOP : 4\nFormat settings, QPel : No\nFormat settings, GMC : No warppoints\nFormat settings, Matrix : Default (H.263)\nMuxing mode : Packed bitstream\nCodec ID : XVID\nCodec ID/Hint : XviD\nDuration : 1h 30mn\nBit rate : 953 Kbps\nWidth : 640 pixels\nHeight : 272 pixels\nDisplay aspect ratio : 2.35:1\nFrame rate : 24.000 fps\nColor space : YUV\nChroma subsampling : 4:2:0\nBit depth : 8 bits\nScan type : Progressive\nCompression mode : Lossy\nBits/(Pixel*Frame) : 0.228\nStream size : 613 MiB (87%)\nWriting library : XviD 64\n\nAudio\nID : 1\nFormat : MPEG Audio\nFormat version : Version 1\nFormat profile : Layer 3\nCodec ID : 55\nCodec ID/Hint : MP3\nDuration : 1h 30mn\nBit rate mode : Constant\nBit rate : 128 Kbps\nChannel(s) : 2 channels\nSampling rate : 44.1 KHz\nCompression mode : Lossy\nStream size : 82.4 MiB (12%)\nAlignment : Split accross interleaves\nInterleave, duration : 42 ms (1.00 video frame)\nInterleave, preload duration : 500 ms\nWriting library : LAME3.99r\nEncoding settings : -m s -V 4 -q 3 -lowpass 17 -b 128\n\nPlot\nA year after witnessing a murder, residents of Tower Block 31 find themselves being picked off\nby a sniper, pitting those lucky enough to be alive into a battle for survival.\n\n &lt;a href=&quot;\nhttp://www.shotpix.com/images/00450764107982510091.png&quot; rel=&quot;nofollow&quot; target=&quot;_NEW&quot;&gt;\nhttp://www.shotpix.com/images/00450764107982510091.png&lt;/a&gt; &lt;a href=&quot;\nhttp://www.shotpix.com/images/14712217516987755745.png&quot; rel=&quot;nofollow&quot; target=&quot;_NEW&quot;&gt;\nhttp://www.shotpix.com/images/14712217516987755745.png&lt;/a&gt; &lt;a href=&quot;\nhttp://www.shotpix.com/images/81241848867197375126.png&quot; rel=&quot;nofollow&quot; target=&quot;_NEW&quot;&gt;\nhttp://www.shotpix.com/images/81241848867197375126.png&lt;/a&gt;","torrent":{"xt":"urn:btih:05bdaa0a20377b0dd9fab8b7710475899f283dff","amp;dn":"Tower+Block+2012++BRRip+XViD+juggs","amp;tr":["udp%3A%2F%2Ftracker.openbittorrent.com%3A80","udp%3A%2F%2Fopen.demonii.com%3A1337","udp%3A%2F%2Ftracker.coppersurfer.tk%3A6969","udp%3A%2F%2Fexodus.desync.com%3A6969"],"infoHash":"05bdaa0a20377b0dd9fab8b7710475899f283dff","infoHashBuffer":{"type":"Buffer","data":[5,189,170,10,32,55,123,13,217,250,184,183,113,4,117,137,159,40,61,255]},"announce":[],"urlList":[]}}